# xmcd
#
# Track frame offsets: 
#        150
#        14462
#        29006
#        43939
#        57967
#        72095
#        86870
#        101459
#        114782
#        129041
#        143915
#        158699
#        174152
#        187162
#        201369
#        217303
#        232210
#        247530
#        262019
#        277282
#        291478
#        307035
#
# Disc length: 4310 seconds
#
# Revision: 0
# Processed by: cddbd v1.5.2PL0 Copyright (c) Steve Scherf et al.
# Submitted via: ExactAudioCopy v0.95b4
#
DISCID=5310d416
DTITLE=Bessie Smith - Queen of the Blues Volume 1 CD B - [788065-902926
DTITLE=]
DYEAR=2007
DGENRE=Blues
TTITLE0=Whoa Tillie Take Your Time
TTITLE1=My Sweetie Went Away
TTITLE2=Any Woman's Blues
TTITLE3=Chicago Bound Blues
TTITLE4=Mistreatin' Daddy
TTITLE5=Frosty Mornin' Blues, Pt. 4
TTITLE6=Haunted House Blues
TTITLE7=Eavesdroppers Blues
TTITLE8=Easy Come Easy Go Blues
TTITLE9=Pinchbacks/Take 'Em Away
TTITLE10=Rockin' Chair Blues
TTITLE11=Ticket Agent Ease Your Window Down
TTITLE12=Bo Weavil Blues
TTITLE13=Hateful Blues
TTITLE14=Frankie Blues
TTITLE15=Moonshine Blues
TTITLE16=Louisiana Low Down Blues
TTITLE17=Mountain Top Blues
TTITLE18=Work House Blues
TTITLE19=House Rent Blues
TTITLE20=Salt Water Blues
TTITLE21=Rainy Weather Blues
EXTD=
EXTT0=
EXTT1=
EXTT2=
EXTT3=
EXTT4=
EXTT5=
EXTT6=
EXTT7=
EXTT8=
EXTT9=
EXTT10=
EXTT11=
EXTT12=
EXTT13=
EXTT14=
EXTT15=
EXTT16=
EXTT17=
EXTT18=
EXTT19=
EXTT20=
EXTT21=
PLAYORDER=
